<?xml version="1.0" encoding="UTF-8" ?>
<!DOCTYPE svg PUBLIC "-//W3C//DTD SVG 1.1//EN" "http://www.w3.org/Graphics/SVG/1.1/DTD/svg11.dtd">
<svg width="248pt" height="77pt" viewBox="0 0 248 77" version="1.1" xmlns="http://www.w3.org/2000/svg">
<g id="#ffffffff">
<path fill="#ffffff" opacity="1.00" d=" M 70.78 14.81 C 77.51 13.10 84.59 14.35 91.47 13.97 C 91.47 15.81 91.47 17.66 91.47 19.50 C 85.66 19.68 79.80 19.12 74.02 19.81 C 70.42 20.73 70.78 25.01 70.92 27.90 C 77.77 27.85 84.62 27.82 91.47 27.84 C 91.47 37.89 91.47 47.95 91.47 58.00 C 89.47 58.00 87.46 58.00 85.46 57.99 C 85.46 49.68 85.48 41.36 85.45 33.05 C 80.60 33.07 75.75 33.07 70.90 33.04 C 70.82 41.36 70.88 49.68 70.86 58.00 C 68.87 58.00 66.87 58.00 64.88 58.00 C 64.87 49.68 64.88 41.37 64.87 33.05 C 62.84 33.05 60.80 33.04 58.76 33.04 C 58.76 31.33 58.76 29.61 58.77 27.89 C 60.79 27.89 62.82 27.89 64.84 27.89 C 64.49 22.98 65.25 16.51 70.78 14.81 Z" />
<path fill="#ffffff" opacity="1.00" d=" M 136.72 13.58 C 139.22 13.58 141.72 13.58 144.22 13.58 C 144.22 15.74 144.22 17.91 144.22 20.08 C 141.72 20.08 139.22 20.08 136.72 20.08 C 136.72 17.91 136.72 15.74 136.72 13.58 Z" />
<path fill="#ffffff" opacity="1.00" d=" M 6.23 17.11 C 8.25 17.11 10.27 17.11 12.28 17.11 C 12.28 30.74 12.28 44.37 12.28 58.00 C 10.27 58.00 8.25 58.00 6.23 58.00 C 6.24 44.37 6.23 30.74 6.23 17.11 Z" />
<path fill="#ffffff" opacity="1.00" d=" M 36.45 26.78 C 40.83 25.22 46.40 25.76 49.72 29.28 C 51.94 31.63 52.64 34.95 52.64 38.08 C 52.66 44.72 52.62 51.36 52.65 57.99 C 50.65 58.00 48.65 58.00 46.65 58.00 C 46.63 51.67 46.69 45.33 46.64 39.00 C 46.67 36.51 46.01 33.60 43.62 32.34 C 38.04 29.52 30.68 33.25 29.11 39.16 C 28.86 45.43 29.10 51.72 29.01 58.00 C 27.00 58.00 24.98 58.00 22.97 58.00 C 22.97 47.52 22.97 37.04 22.97 26.56 C 24.98 26.56 27.00 26.56 29.01 26.56 C 29.01 29.47 29.05 32.38 28.97 35.29 C 30.27 31.65 32.68 28.14 36.45 26.78 Z" />
<path fill="#ffffff" opacity="1.00" d=" M 112.49 26.77 C 116.85 25.23 122.36 25.77 125.68 29.24 C 127.94 31.59 128.65 34.96 128.64 38.13 C 128.66 44.75 128.62 51.37 128.65 57.99 C 126.65 58.00 124.65 58.00 122.65 58.00 C 122.63 51.65 122.69 45.29 122.64 38.94 C 122.67 36.46 121.99 33.59 119.61 32.34 C 114.03 29.53 106.67 33.25 105.11 39.16 C 104.86 45.43 105.10 51.72 105.01 58.00 C 103.00 58.00 100.98 58.00 98.97 58.00 C 98.97 47.52 98.97 37.04 98.97 26.56 C 100.98 26.56 103.00 26.56 105.01 26.56 C 105.02 29.47 105.05 32.38 104.96 35.29 C 106.27 31.65 108.70 28.12 112.49 26.77 Z" />
<path fill="#ffffff" opacity="1.00" d=" M 196.08 35.27 C 197.61 29.17 203.89 24.85 210.16 26.10 C 214.69 26.44 218.36 29.99 219.37 34.34 C 221.54 27.83 229.11 24.27 235.54 26.62 C 239.86 27.87 242.57 32.27 242.64 36.63 C 242.81 43.75 242.64 50.87 242.71 57.99 C 240.71 58.00 238.71 58.00 236.72 58.00 C 236.70 51.65 236.75 45.31 236.70 38.96 C 236.69 36.68 236.22 34.09 234.22 32.69 C 228.84 29.23 219.70 33.05 219.70 39.83 C 219.55 45.88 219.68 51.94 219.65 57.99 C 217.65 58.00 215.65 58.00 213.65 58.00 C 213.63 51.67 213.69 45.34 213.64 39.01 C 213.67 36.51 213.01 33.61 210.63 32.35 C 205.04 29.52 197.67 33.25 196.11 39.16 C 195.86 45.44 196.10 51.72 196.01 58.00 C 194.00 58.00 191.98 58.00 189.97 58.00 C 189.97 47.52 189.97 37.04 189.97 26.56 C 191.98 26.56 193.99 26.56 196.01 26.56 C 195.99 29.46 196.06 32.37 196.08 35.27 Z" />
<path fill="#ffffff" opacity="1.00" d=" M 137.46 57.99 C 137.48 47.51 137.46 37.04 137.47 26.56 C 139.46 26.56 141.46 26.56 143.45 26.56 C 143.46 37.04 143.45 47.52 143.45 58.00 C 141.45 58.00 139.46 58.00 137.46 57.99 Z" />
<path fill="#ffffff" opacity="1.00" d=" M 151.97 26.56 C 153.98 26.56 156.00 26.56 158.01 26.56 C 158.09 33.43 157.87 40.30 158.11 47.16 C 158.10 50.27 160.76 52.90 163.83 53.03 C 169.61 54.21 175.14 49.24 175.51 43.57 C 175.86 37.91 175.55 32.23 175.66 26.56 C 177.65 26.56 179.64 26.56 181.63 26.56 C 181.65 37.04 181.63 47.52 181.64 58.00 C 179.65 58.00 177.65 58.00 175.66 58.00 C 175.66 54.52 175.61 51.03 175.74 47.55 C 174.54 51.36 172.77 55.37 169.12 57.42 C 162.96 60.70 153.41 57.55 152.26 50.12 C 151.61 42.29 152.14 34.41 151.97 26.56 Z" />
</g>
</svg>
